<?xml version="1.0" encoding="utf-8"?>
<!-- Generator: Adobe Illustrator 16.0.0, SVG Export Plug-In . SVG Version: 6.00 Build 0)  -->
<!DOCTYPE svg PUBLIC "-//W3C//DTD SVG 1.1//EN" "http://www.w3.org/Graphics/SVG/1.1/DTD/svg11.dtd">
<svg version="1.1" id="Layer_1" xmlns="http://www.w3.org/2000/svg" xmlns:xlink="http://www.w3.org/1999/xlink" x="0px" y="0px"
	 width="64px" height="64px" viewBox="0 0 64 64" enable-background="new 0 0 64 64" xml:space="preserve">
<path d="M63.129,6.874H0.872C0.39,6.874,0,7.265,0,7.744v48.512c0,0.481,0.39,0.871,0.871,0.871h62.257
	c0.479,0,0.871-0.39,0.871-0.871V7.744C64,7.265,63.608,6.874,63.129,6.874z M61.162,53.498c0,0.436-0.355,0.793-0.793,0.793H3.632
	c-0.438,0-0.794-0.357-0.794-0.793V10.505c0-0.439,0.355-0.794,0.794-0.794h56.737c0.438,0,0.793,0.355,0.793,0.794V53.498z"/>
<g>
	<path d="M6.873,16.096c0-0.491,0.126-0.929,0.379-1.314c0.252-0.384,0.604-0.669,1.056-0.855c0.279-0.119,0.564-0.178,0.857-0.178
		c0.69,0,1.341,0.352,1.953,1.056l5.062,5.939v-4.684c0-0.305,0.06-0.599,0.179-0.877c0.121-0.279,0.292-0.531,0.519-0.757
		c0.479-0.451,1.017-0.676,1.614-0.676c0.625,0,1.164,0.225,1.615,0.678c0.452,0.453,0.678,0.998,0.678,1.637v10.059l-0.041,0.459
		c-0.105,0.545-0.371,0.988-0.796,1.327c-0.425,0.339-0.917,0.51-1.475,0.51c-0.199,0-0.402-0.028-0.608-0.08
		c-0.206-0.054-0.402-0.14-0.588-0.259c-0.239-0.16-0.431-0.325-0.578-0.497l-5.222-6.319v4.849c0,0.648-0.223,1.196-0.668,1.64
		c-0.445,0.443-0.972,0.666-1.583,0.666c-0.665,0-1.223-0.253-1.674-0.757c-0.452-0.504-0.678-1.094-0.678-1.771V16.096z"/>
</g>
<g>
	<path d="M26.19,17.016c0.704-1.01,1.615-1.807,2.73-2.393c1.116-0.584,2.306-0.876,3.567-0.876c1.276,0,2.464,0.285,3.568,0.857
		c1.102,0.571,2.013,1.375,2.729,2.412c0.89,1.261,1.335,2.63,1.335,4.104c0,1.475-0.445,2.843-1.335,4.106
		c-0.703,1.036-1.612,1.84-2.719,2.412c-1.11,0.57-2.303,0.857-3.579,0.857c-1.275,0-2.464-0.287-3.567-0.857
		c-1.103-0.572-2.013-1.376-2.73-2.412c-0.89-1.275-1.334-2.645-1.334-4.106S25.3,18.291,26.19,17.016z M35.519,20.503
		c-0.134-0.824-0.483-1.488-1.048-1.993s-1.225-0.757-1.982-0.757c-0.863,0-1.591,0.315-2.182,0.947
		c-0.592,0.631-0.886,1.438-0.886,2.42c0,0.984,0.294,1.791,0.886,2.422c0.591,0.631,1.312,0.946,2.163,0.946
		c0.198,0,0.398-0.019,0.597-0.059c0.73-0.146,1.332-0.522,1.805-1.126c0.471-0.604,0.706-1.326,0.706-2.163
		C35.577,20.941,35.557,20.729,35.519,20.503z"/>
</g>
<g>
	<path d="M45.171,16.165c0-0.759,0.204-1.353,0.616-1.778c0.412-0.427,0.981-0.639,1.712-0.639h4.366
		c1.382,0,2.509,0.308,3.378,0.926c0.871,0.618,1.439,1.492,1.704,2.621c0.107,0.465,0.159,0.89,0.159,1.275
		c0,0.638-0.116,1.222-0.348,1.754c-0.234,0.531-0.568,0.99-1.008,1.375l-0.078,0.08l-0.459,0.358l-0.279,0.219l1.695,2.232
		c0.331,0.426,0.497,0.905,0.497,1.436c0,0.771-0.323,1.389-0.975,1.853c-0.41,0.293-0.854,0.44-1.332,0.44
		c-0.793,0-1.49-0.432-2.086-1.295l-2.961-4.385v3.393c0,0.642-0.221,1.184-0.662,1.625c-0.438,0.442-0.986,0.663-1.642,0.663
		c-0.627,0-1.167-0.227-1.62-0.681c-0.454-0.452-0.679-1.006-0.679-1.658V16.165z M52.504,18.51c0-0.226-0.074-0.412-0.22-0.558
		c-0.147-0.146-0.319-0.219-0.52-0.219h-1.991v1.714h1.913c0.251,0,0.459-0.09,0.618-0.27S52.53,18.776,52.504,18.51z"/>
</g>
<g>
	<polygon points="31.97,43.996 34.123,43.996 33.047,40.169 	"/>
	<path d="M58.855,31.922H5.145c-0.456,0-0.825,0.369-0.825,0.824v20.206c0,0.455,0.37,0.824,0.825,0.824h53.71
		c0.455,0,0.824-0.369,0.824-0.824V32.747C59.68,32.292,59.311,31.922,58.855,31.922z M23.595,48.238
		c-0.053,0.548-0.298,1.005-0.737,1.377c-0.438,0.372-0.943,0.56-1.515,0.56c-0.24,0-0.493-0.04-0.756-0.121
		c-0.905-0.304-1.41-0.916-1.515-1.832l-0.698-5.72l-1.833,6c-0.267,0.89-0.685,1.427-1.256,1.612
		c-0.292,0.093-0.559,0.14-0.797,0.14c-0.931,0-1.568-0.59-1.913-1.772l-1.854-5.999L10.043,48.2
		c-0.053,0.414-0.216,0.785-0.488,1.117c-0.273,0.333-0.615,0.571-1.026,0.717c-0.267,0.08-0.525,0.121-0.778,0.121
		c-0.571,0-1.07-0.18-1.495-0.538c-0.425-0.358-0.671-0.824-0.737-1.396c-0.013-0.066-0.021-0.165-0.021-0.298
		c0-0.067,0-0.143,0-0.221c0.027-0.106,0.041-0.187,0.041-0.238l1.634-9.469c0.186-1.155,0.791-1.926,1.814-2.31
		c0.425-0.159,0.829-0.241,1.215-0.241c0.678,0,1.276,0.196,1.794,0.589c0.519,0.394,0.877,0.921,1.076,1.583l1.475,5.004
		l1.475-5.004c0.2-0.649,0.565-1.174,1.097-1.572c0.531-0.4,1.129-0.6,1.793-0.6c0.385,0,0.791,0.082,1.216,0.241
		c0.997,0.372,1.601,1.143,1.813,2.313l1.615,9.48c0.026,0.121,0.04,0.244,0.04,0.368C23.595,47.976,23.595,48.107,23.595,48.238z
		 M39.844,49.257c-0.24,0.347-0.587,0.611-1.037,0.797c-0.307,0.133-0.625,0.2-0.957,0.2c-0.479,0-0.911-0.144-1.296-0.428
		c-0.384-0.285-0.67-0.688-0.855-1.206l-0.22-0.658h-4.843l-0.24,0.658c-0.186,0.505-0.475,0.905-0.867,1.196
		c-0.392,0.292-0.827,0.438-1.305,0.438c-0.319,0-0.632-0.067-0.937-0.2c-0.931-0.398-1.396-1.063-1.396-1.995
		c0-0.332,0.086-0.737,0.26-1.218l3.427-8.78c0.319-0.797,0.781-1.419,1.385-1.856c0.605-0.44,1.3-0.658,2.083-0.658
		c0.783,0,1.478,0.217,2.084,0.649c0.604,0.432,1.064,1.053,1.383,1.865l3.429,8.78c0.174,0.48,0.26,0.886,0.26,1.218
		C40.202,48.511,40.081,48.91,39.844,49.257z M57.127,47.96l-0.039,0.459c-0.107,0.545-0.375,0.987-0.799,1.328
		c-0.426,0.338-0.916,0.507-1.476,0.507c-0.199,0-0.399-0.025-0.607-0.079c-0.206-0.054-0.4-0.139-0.585-0.258
		c-0.241-0.16-0.435-0.326-0.579-0.497l-5.224-6.32v4.85c0,0.647-0.222,1.195-0.667,1.64c-0.445,0.443-0.973,0.665-1.584,0.665
		c-0.665,0-1.223-0.253-1.675-0.756s-0.677-1.095-0.677-1.771v-9.793c0-0.49,0.126-0.928,0.379-1.312
		c0.251-0.386,0.604-0.672,1.055-0.857c0.28-0.119,0.566-0.178,0.858-0.178c0.691,0,1.343,0.352,1.952,1.056l5.062,5.939v-4.684
		c0-0.307,0.06-0.598,0.179-0.876c0.121-0.28,0.293-0.532,0.52-0.757c0.478-0.454,1.017-0.679,1.614-0.679
		c0.625,0,1.161,0.227,1.615,0.679c0.452,0.452,0.677,0.999,0.677,1.637V47.96z"/>
</g>
</svg>
